<svg width="32" height="32" viewBox="0 0 120 120" xmlns="http://www.w3.org/2000/svg">
  <defs>
    <linearGradient id="pg" x1="0%" y1="0%" x2="100%" y2="100%"><stop offset="0%" stop-color="#7C3AED"/><stop offset="100%" stop-color="#06B6D4"/></linearGradient>
    <linearGradient id="ag" x1="0%" y1="0%" x2="100%" y2="100%"><stop offset="0%" stop-color="#10B981"/><stop offset="100%" stop-color="#059669"/></linearGradient>
    <linearGradient id="ng" x1="0%" y1="0%" x2="100%" y2="100%"><stop offset="0%" stop-color="#F59E0B"/><stop offset="100%" stop-color="#D97706"/></linearGradient>
    <linearGradient id="rg" x1="0%" y1="0%" x2="100%" y2="100%"><stop offset="0%" stop-color="#6366F1"/><stop offset="100%" stop-color="#4F46E5"/></linearGradient>
  </defs>
  <g stroke-width="2" opacity="0.5" stroke-linecap="round">
    <line x1="40" y1="30" x2="52" y2="42" stroke="url(#ag)"/><line x1="52" y1="42" x2="70" y2="35" stroke="url(#ag)"/>
    <line x1="52" y1="42" x2="48" y2="55" stroke="url(#pg)"/><line x1="48" y1="55" x2="75" y2="52" stroke="url(#ng)"/>
    <line x1="48" y1="55" x2="55" y2="72" stroke="url(#pg)"/><line x1="55" y1="72" x2="35" y2="85" stroke="url(#rg)"/><line x1="55" y1="72" x2="72" y2="82" stroke="url(#rg)"/>
  </g>
  <circle cx="40" cy="30" r="7" fill="url(#ag)"/><circle cx="52" cy="42" r="5" fill="url(#ag)"/><circle cx="70" cy="35" r="3.5" fill="url(#ag)"/>
  <circle cx="48" cy="55" r="6" fill="url(#pg)"/><circle cx="48" cy="55" r="3" fill="#fff" opacity="0.9"/>
  <circle cx="75" cy="52" r="4.5" fill="url(#ng)"/><circle cx="88" cy="60" r="3.5" fill="url(#ng)"/>
  <circle cx="55" cy="72" r="5" fill="url(#rg)"/><circle cx="35" cy="85" r="4" fill="url(#rg)"/><circle cx="72" cy="82" r="4" fill="url(#rg)"/>
</svg>
